<?xml version="1.0" encoding="iso-8859-1"?>
<!-- Generator: Adobe Illustrator 19.0.0, SVG Export Plug-In . SVG Version: 6.00 Build 0)  -->
<svg version="1.1" id="Capa_1" xmlns="http://www.w3.org/2000/svg" xmlns:xlink="http://www.w3.org/1999/xlink" x="0px" y="0px"
	 viewBox="0 0 512 512" style="enable-background:new 0 0 512 512;" xml:space="preserve">
<g>
	<g>
		<path d="M503.249,8.75c-11.667-11.667-30.759-11.667-42.426,0l-48.482,48.482c-46.032-27.365-106.278-21.001-145.735,18.455
			l-53.033,53.033c-6.427,6.427-11.758,13.464-16.416,20.808c19.108-2.126,38.678-0.693,57.6,4.611
			c4.592,1.291,9.044,3.023,13.487,4.763l40.789-40.789c15.698-15.698,37.972-21.001,57.913-15.487l-15.487,15.487
			c-11.667,11.667-11.667,30.759,0,42.426s30.759,11.667,42.426,0l15.487-15.487c5.514,19.94,0.211,42.215-15.487,57.913
			L340.853,256c-3.606,3.606-7.636,6.787-11.879,9.334l-0.212-0.212c-5.516-19.092-15.485-36.698-30.335-51.548
			c-14.85-14.85-32.88-25.244-51.76-30.547c-21.213-5.94-43.062-6.151-64.064-0.425c-19.727,5.303-38.395,15.485-53.881,30.972
			l-53.033,53.033c-39.456,39.456-45.82,99.702-18.455,145.735L8.75,460.823c-11.667,11.667-11.667,30.759,0,42.426
			c11.667,11.667,30.759,11.667,42.426,0l48.482-48.482c46.032,27.365,106.278,21.001,145.735-18.455l53.033-53.033
			c6.427-6.427,11.76-13.467,16.417-20.809c-19.108,2.126-38.679,0.694-57.601-4.609c-4.592-1.291-9.043-3.025-13.486-4.765
			l-40.79,40.79c-15.698,15.698-37.972,21.001-57.912,15.485l15.485-15.485c11.667-11.667,11.667-30.759,0-42.426
			s-30.759-11.667-42.426,0l-15.485,15.485c-5.516-19.939-0.212-42.214,15.485-57.912L171.147,256
			c3.607-3.607,7.638-6.788,12.092-9.122c5.516,19.092,15.485,36.698,30.335,51.548c14.85,14.849,32.88,25.244,51.76,30.547
			c21.213,5.94,43.062,6.151,64.064,0.425c19.728-5.305,38.396-15.487,53.881-30.972l53.033-53.033
			c39.456-39.456,45.82-99.702,18.455-145.735l48.482-48.482C514.916,39.509,514.916,20.417,503.249,8.75z"/>
	</g>
</g>
<g>
</g>
<g>
</g>
<g>
</g>
<g>
</g>
<g>
</g>
<g>
</g>
<g>
</g>
<g>
</g>
<g>
</g>
<g>
</g>
<g>
</g>
<g>
</g>
<g>
</g>
<g>
</g>
<g>
</g>
</svg>
